<svg xmlns="http://www.w3.org/2000/svg" xmlns:xlink="http://www.w3.org/1999/xlink" version="1.1" x="0px" y="0px" viewBox="0 0 100 125" enable-background="new 0 0 100 100" xml:space="preserve"><g><path d="M23.79,25.184h-7.745c-2.956,15.196-2.956,34.431-0.001,49.628h7.746C21.934,59.391,21.934,40.605,23.79,25.184z"/><path d="M29.548,25.184c-1.846,15.227-1.846,34.4,0,49.628h9.026c-0.692-15.376-0.692-34.253,0-49.628H29.548z"/><path d="M76.302,5H23.701c-2.421,3.169-4.393,7.637-5.924,12.914h64.448C80.694,12.637,78.722,8.169,76.302,5z"/><path d="M44.277,74.812h11.445c0.688-15.295,0.687-34.334,0-49.628H44.277C43.59,40.479,43.589,59.517,44.277,74.812z"/><path d="M83.955,25.184h-7.743c1.856,15.421,1.856,34.207,0,49.628h7.744C86.911,59.616,86.911,40.381,83.955,25.184z"/><path d="M70.455,74.812c1.846-15.228,1.846-34.401,0-49.628h-9.029c0.692,15.375,0.692,34.252,0,49.628H70.455z"/><path d="M23.701,95h52.601c2.421-3.17,4.392-7.639,5.923-12.917h-64.45C19.307,87.361,21.279,91.83,23.701,95z"/></g><text x="0" y="115" fill="#000000" font-size="5px" font-weight="bold" font-family="'Helvetica Neue', Helvetica, Arial-Unicode, Arial, Sans-serif">Created by Christopher T. Howlett</text><text x="0" y="120" fill="#000000" font-size="5px" font-weight="bold" font-family="'Helvetica Neue', Helvetica, Arial-Unicode, Arial, Sans-serif">from the Noun Project</text></svg>